<svg width="41" height="41" viewBox="0 0 41 41" fill="none" xmlns="http://www.w3.org/2000/svg">
<circle cx="20.6396" cy="20.21" r="20" fill="black"/>
<path fill-rule="evenodd" clip-rule="evenodd" d="M27.7491 25.7987C28.3391 24.8987 28.5591 24.4387 29.0091 23.4287C25.6891 22.1687 25.1591 17.4387 28.4391 15.6287C27.4391 14.3687 26.0291 13.6387 24.6991 13.6387C23.7391 13.6387 23.0791 13.8887 22.4891 14.1187C21.9891 14.3087 21.5391 14.4787 20.9791 14.4787C20.3791 14.4787 19.8491 14.2887 19.2891 14.0887C18.6791 13.8687 18.0391 13.6387 17.2391 13.6387C15.7491 13.6387 14.1591 14.5487 13.1491 16.1087C11.7291 18.3087 11.9791 22.4287 14.2691 25.9487C15.0891 27.2087 16.1891 28.6187 17.6191 28.6387C18.2191 28.6487 18.6091 28.4687 19.0391 28.2787C19.5291 28.0587 20.0591 27.8187 20.9891 27.8187C21.9191 27.8087 22.4391 28.0587 22.9291 28.2787C23.3491 28.4687 23.7291 28.6487 24.3191 28.6387C25.7691 28.6187 26.9291 27.0587 27.7491 25.7987Z" fill="#FFFFFF"/>
<path fill-rule="evenodd" clip-rule="evenodd" d="M24.4895 8.63867C24.6495 9.73867 24.1995 10.8287 23.6095 11.5887C22.9795 12.4087 21.8795 13.0487 20.8195 13.0087C20.6295 11.9487 21.1195 10.8587 21.7195 10.1287C22.3895 9.32866 23.5195 8.70867 24.4895 8.63867Z" fill="#FFFFFF"/>
</svg>
