<svg xmlns="http://www.w3.org/2000/svg" xmlns:xlink="http://www.w3.org/1999/xlink" viewBox="0 0 22 27.5" version="1.1" x="0px" y="0px">
    <title>Group 7 Copy</title>
    <desc>Created with Sketch.</desc>
    <g stroke="none" stroke-width="1" fill="none" fill-rule="evenodd">
        <g fill-rule="nonzero" fill="#003996">
            <path d="M9.82253621,2.07498171 L10.5984411,0.369442465 C10.8008669,-0.0755154437 11.2953116,-0.308909483 11.767494,-0.1823886 L15.926525,0.932020422 C16.3987074,1.0585413 16.7102121,1.50788884 16.663039,1.99444655 L16.4822227,3.85943933 C17.1087138,4.34082947 17.6642552,4.89975055 18.1383337,5.51799321 L20.0055534,5.33696105 C20.4921112,5.28978792 20.9414587,5.6012926 21.0679796,6.07347496 L22.1823886,10.232506 C22.3089095,10.7046884 22.0755154,11.1991331 21.6305575,11.4015589 L19.9235768,12.1781196 C19.8724785,12.5614388 19.7961015,12.9458321 19.6933324,13.3293714 C19.5905634,13.7129107 19.4645112,14.0839936 19.317104,14.441507 L20.4071123,15.9675186 C20.6912443,16.3653034 20.6461471,16.9102021 20.3004856,17.2558636 L17.2558636,20.3004856 C16.9102021,20.6461471 16.3653034,20.6912443 15.9675186,20.4071123 L14.440975,19.316724 C13.7212895,19.6150986 12.960716,19.8213677 12.1774638,19.9250183 L11.4015589,21.6305575 C11.1991331,22.0755154 10.7046884,22.3089095 10.232506,22.1823886 L6.07347496,21.0679796 C5.6012926,20.9414587 5.28978792,20.4921112 5.33696105,20.0055534 L5.5177773,18.1405607 C4.89128624,17.6591705 4.33574484,17.1002494 3.86166627,16.4820068 L1.99444655,16.663039 C1.50788884,16.7102121 1.0585413,16.3987074 0.932020422,15.926525 L-0.1823886,11.767494 C-0.308909483,11.2953116 -0.0755154437,10.8008669 0.369442465,10.5984411 L2.07642316,9.82188045 C2.12752147,9.4385612 2.20389853,9.05416786 2.30666756,8.67062859 C2.4094366,8.28708933 2.5354888,7.9160064 2.68289599,7.55849304 L1.59288768,6.03248142 C1.3087557,5.63469664 1.35385289,5.08979792 1.69951437,4.74413644 L4.74413644,1.69951437 C5.08979792,1.35385289 5.63469664,1.3087557 6.03248142,1.59288768 L7.55902505,2.68327599 C8.27871045,2.38490143 9.03928397,2.17863227 9.82253621,2.07498171 Z M5.5593407,3.71273724 L3.71273724,5.5593407 L4.95400013,7.29710873 L4.53189545,8.32085842 C4.41624502,8.60135069 4.31822501,8.89080061 4.23851922,9.18826668 C4.15881342,9.48573276 4.09897628,9.78541375 4.05888636,10.0861524 L3.91256488,11.183798 L1.96871568,12.0681178 L2.64461945,14.590625 L4.77338409,14.3842354 L5.44876429,15.2649941 C5.82014109,15.7493041 6.25281099,16.1831131 6.73636203,16.5546694 L7.61542371,17.2301325 L7.40937498,19.3553805 L9.93188221,20.0312843 L10.8160628,18.0877412 L11.9150841,17.9423038 C12.5196297,17.8623021 13.1112374,17.7029474 13.6750141,17.4692111 L14.7002899,17.0441417 L16.4406593,18.2872628 L18.2872628,16.4406593 L17.0459999,14.7028913 L17.4681045,13.6791416 C17.583755,13.3986493 17.681775,13.1091994 17.7614808,12.8117333 C17.8411866,12.5142672 17.9010237,12.2145863 17.9411136,11.9138476 L18.0874351,10.816202 L20.0312843,9.93188221 L19.3553805,7.40937498 L17.2266159,7.61576465 L16.5512357,6.73500589 C16.1798589,6.25069592 15.747189,5.81688694 15.263638,5.44533065 L14.3845763,4.7698675 L14.590625,2.64461945 L12.0681178,1.96871568 L11.1839372,3.91225884 L10.0849159,4.05769624 C9.48037025,4.13769792 8.88876263,4.29705256 8.32498591,4.5307889 L7.29971012,4.95585826 L5.5593407,3.71273724 Z M11,15 C8.790861,15 7,13.209139 7,11 C7,8.790861 8.790861,7 11,7 C13.209139,7 15,8.790861 15,11 C15,13.209139 13.209139,15 11,15 Z M11,13 C12.1045695,13 13,12.1045695 13,11 C13,9.8954305 12.1045695,9 11,9 C9.8954305,9 9,9.8954305 9,11 C9,12.1045695 9.8954305,13 11,13 Z"/>
        </g>
    </g>
    <text x="0" y="37" fill="#003996" font-size="5px" font-weight="bold" font-family="'Helvetica Neue', Helvetica, Arial-Unicode, Arial, Sans-serif">Created by Тимур Минвалеев</text>
    <text x="0" y="42" fill="#003996" font-size="5px" font-weight="bold" font-family="'Helvetica Neue', Helvetica, Arial-Unicode, Arial, Sans-serif">from the Noun Project</text>
</svg>
