<svg xmlns="http://www.w3.org/2000/svg" viewBox="0 0 64 80" x="0px" y="0px">
    <title>Online Chat_1</title>
    <g>
        <path fill="#003996" d="M28.81,27.19H21.89a1,1,0,0,1,0-2h6.92a1,1,0,0,1,0,2Zm-.88,2.14a1,1,0,0,0-1-1H20a1,1,0,0,0,0,2h6.93A1,1,0,0,0,27.93,29.33Zm5,3.15a1,1,0,0,0-1-1H24.41a1,1,0,0,0,0,2H32A1,1,0,0,0,33,32.48Zm-10.07,0a1,1,0,0,0-1-1H20.63a1,1,0,0,0,0,2h1.26A1,1,0,0,0,22.89,32.48ZM51.59,17H28.08a2.47,2.47,0,0,0-2.41,2.52v3.67h3.14A3,3,0,0,1,29.91,29c0,.12,0,.23,0,.35s0,.1,0,.15h2a3,3,0,1,1,0,6H26.14a2.36,2.36,0,0,0,1.94,1H51.59A2.47,2.47,0,0,0,54,34V19.52A2.47,2.47,0,0,0,51.59,17Zm-.87,4.65L41.8,26.74a4,4,0,0,1-3.94,0L29,21.65a1,1,0,0,1-.37-1.37,1,1,0,0,1,1.36-.37L38.86,25a1.94,1.94,0,0,0,2,0l8.92-5.09a1,1,0,0,1,1.36.37A1,1,0,0,1,50.72,21.65ZM28.08,38.52a4.4,4.4,0,0,1-3.58-1.89l-.88-1.25a3.8,3.8,0,0,1-.47-.18,3,3,0,0,1-1.26.28H20.63a3,3,0,0,1-2.8-4.08,3,3,0,0,1,1.08-4.86c0-.12,0-.24,0-.35a3,3,0,0,1,3-3h1.78V19.52A4.47,4.47,0,0,1,28.08,15H40V11a6,6,0,0,0-6-6H16a6,6,0,0,0-6,6V52H31a1,1,0,0,1,0,2H10.09A6,6,0,0,0,16,59H34a6,6,0,0,0,6-6V38.52ZM25,7a1,1,0,1,1-1,1A1,1,0,0,1,25,7Z" />
    </g>
</svg>
