<svg width="12" height="12" viewBox="0 0 12 12" fill="none" xmlns="http://www.w3.org/2000/svg">
<path d="M10.4241 11.0432H2.10065C1.91107 11.0432 1.75385 10.886 1.75385 10.6964C1.75385 10.5068 1.91107 10.3496 2.10065 10.3496H10.4241C10.6136 10.3496 10.7709 10.5068 10.7709 10.6964C10.7709 10.886 10.6136 11.0432 10.4241 11.0432Z" fill="white"/>
<path d="M9.50829 2.48033C8.61121 1.58326 7.73263 1.56014 6.81243 2.48033L6.25291 3.03985C6.20667 3.08609 6.18818 3.16008 6.20667 3.22482C6.55811 4.45021 7.53842 5.43052 8.76381 5.78195C8.7823 5.78657 8.8008 5.7912 8.8193 5.7912C8.87016 5.7912 8.9164 5.7727 8.9534 5.73571L9.50829 5.17619C9.96608 4.72303 10.188 4.28374 10.188 3.83982C10.1927 3.38204 9.9707 2.93812 9.50829 2.48033Z" fill="white"/>
<path d="M7.93164 6.20198C7.79754 6.13724 7.66806 6.07251 7.54321 5.99852C7.44148 5.93841 7.34437 5.87367 7.24727 5.80431C7.16866 5.75344 7.07618 5.67946 6.98832 5.60547C6.97907 5.60085 6.9467 5.5731 6.90971 5.53611C6.75711 5.40663 6.58602 5.24017 6.43342 5.0552C6.41955 5.04595 6.39643 5.01359 6.36406 4.97197C6.31782 4.91648 6.23921 4.824 6.16985 4.71764C6.11436 4.64828 6.04962 4.54655 5.98951 4.44482C5.91552 4.31997 5.85079 4.19512 5.78605 4.06564C5.70117 3.88376 5.46245 3.82973 5.32052 3.97165L2.72026 6.57191C2.66015 6.63202 2.60466 6.74763 2.59079 6.82624L2.34108 8.59727C2.29484 8.91171 2.3827 9.20765 2.57691 9.40649C2.74338 9.56834 2.97459 9.65619 3.22429 9.65619C3.27978 9.65619 3.33527 9.65157 3.39076 9.64232L5.16642 9.39262C5.24965 9.37875 5.36525 9.32326 5.42074 9.26314L8.02529 6.65859C8.16438 6.51951 8.11212 6.28019 7.93164 6.20198Z" fill="white"/>
</svg>
