<svg version="1.1" id="Layer_1" xmlns="http://www.w3.org/2000/svg" xmlns:xlink="http://www.w3.org/1999/xlink" x="0px" y="0px"
	 width="100%" viewBox="0 0 512 512" enable-background="new 0 0 512 512" xml:space="preserve">
<path fill="#000000" opacity="1.000000" stroke="none" 
	d="
M513.000000,200.000000 
	C513.000000,304.641235 513.000000,408.782471 513.000000,512.961853 
	C342.400421,512.961853 171.800827,512.961853 1.100622,512.961853 
	C1.100622,342.442139 1.100622,171.884171 1.100622,1.163107 
	C171.666534,1.163107 342.333252,1.163107 513.000000,1.163107 
	C513.000000,67.199127 513.000000,133.349564 513.000000,200.000000 
M402.041443,83.947296 
	C402.041443,83.947296 402.117035,83.930099 401.838440,83.311104 
	C395.800537,77.268173 389.182617,72.442436 380.450806,70.731750 
	C372.887543,69.249977 365.504639,69.736954 358.299011,70.180611 
	C363.702240,56.233116 360.570190,43.666431 351.933563,31.444311 
	C351.633698,31.249821 351.333832,31.055330 350.927155,30.401531 
	C350.745941,30.105022 350.481598,29.957926 349.854950,29.336262 
	C337.957123,16.440718 322.870117,13.993933 307.149750,18.671753 
	C290.777496,23.543558 282.285309,36.338299 279.703827,53.500046 
	C278.629242,52.775158 278.091187,52.467251 277.614899,52.082806 
	C267.578522,43.981945 255.527405,41.797474 243.749069,44.437859 
	C220.157242,49.726509 207.728302,70.257622 213.167984,93.365852 
	C215.000717,101.151360 218.335358,108.725227 226.217300,113.763771 
	C230.768356,116.522324 235.319397,119.280884 239.747589,122.731194 
	C214.106628,135.408768 210.174271,171.788818 233.635834,190.128540 
	C245.754089,200.569595 266.138092,202.507553 281.600952,191.798828 
	C285.418457,189.155029 288.768433,185.836105 292.480377,182.703461 
	C297.321503,201.319885 309.164581,212.177872 327.355194,214.754944 
	C341.574066,216.769348 354.576416,212.046051 363.564331,200.511902 
	C375.988892,184.567474 375.926270,167.463837 365.217560,149.999939 
	C368.043243,149.999939 370.494690,149.975861 372.945557,150.003754 
	C392.965332,150.231506 410.397217,132.114502 411.008698,112.012039 
	C411.310730,102.081802 408.470245,93.129906 402.935791,84.459030 
	C402.640778,84.262787 402.345795,84.066551 402.041443,83.947296 
M316.856781,318.288330 
	C309.788818,314.178955 302.926056,309.654327 295.613129,306.040619 
	C276.210602,296.452820 254.501007,300.965485 239.441177,315.247467 
	C228.935196,325.210815 224.201859,337.706116 224.836273,352.553162 
	C225.399109,365.725281 230.929886,376.040222 240.161057,385.688843 
	C245.698914,388.797577 251.045380,392.332367 256.815430,394.924164 
	C267.996277,399.946381 280.037384,399.011597 291.788971,399.727509 
	C277.391602,409.601776 265.000916,420.850952 261.870819,439.379425 
	C258.823242,457.419525 263.540924,472.639191 277.217438,485.763916 
	C287.462952,493.738159 298.829895,497.714996 312.051849,497.111298 
	C330.062408,496.288971 342.780548,487.246887 351.663330,472.471100 
	C355.639404,465.857147 358.018890,458.283356 361.028503,451.362305 
	C363.568420,457.241669 365.950043,463.481262 368.895020,469.442535 
	C380.110016,492.144073 400.943146,500.916809 424.162445,495.900635 
	C444.464355,491.514679 458.522247,474.938293 460.887909,454.875092 
	C462.832916,438.378937 457.495361,423.953827 445.642914,412.263458 
	C440.952789,407.637482 435.595795,403.687592 430.596436,399.475372 
	C438.347412,398.986511 446.242767,399.013184 453.969940,397.886475 
	C467.904266,395.854797 479.979370,390.129608 488.366852,378.147461 
	C501.415070,359.507172 500.055664,334.155029 484.851166,317.332214 
	C474.521973,306.671448 461.856781,301.041779 447.094360,301.112457 
	C432.715302,301.181366 420.346313,307.328888 408.884186,315.566193 
	C407.417694,316.620056 405.565735,317.137573 403.990326,317.121307 
	C408.108978,306.340546 409.804443,295.176361 408.973328,283.680481 
	C408.190918,272.858612 404.183411,263.447998 395.850433,255.333572 
	C390.591492,251.567642 385.832611,246.429260 379.978638,244.296402 
	C363.264374,238.206635 346.669098,238.924026 331.911438,250.096588 
	C321.274780,258.149261 314.306885,268.803925 313.067017,282.391541 
	C311.956055,294.566071 313.947266,306.426178 317.721436,318.325012 
	C317.608185,318.465179 317.494965,318.605316 316.856781,318.288330 
M115.773643,188.242859 
	C113.246284,184.502396 110.718918,180.761917 107.896278,176.396454 
	C94.548508,160.465164 68.456139,157.203079 49.514874,174.227142 
	C41.444477,181.480682 37.482212,191.541443 37.205330,202.236710 
	C36.895702,214.197067 41.716713,224.746536 50.013107,233.758896 
	C33.690659,236.380051 22.704641,246.676895 18.372000,260.767639 
	C13.418546,276.877411 16.394552,292.196930 30.160389,304.695160 
	C41.841747,314.750092 55.163059,316.129761 70.251648,311.694855 
	C67.757050,324.338013 70.086960,335.804871 77.407806,345.644379 
	C84.984718,355.828064 95.774620,361.250885 108.417679,361.874084 
	C117.847816,362.338898 126.786842,359.548920 134.376740,353.822296 
	C147.541214,343.889679 151.657944,329.976501 149.824234,313.568634 
	C165.058640,321.842712 178.317642,323.056885 193.136536,313.801636 
	C206.813751,305.259399 212.320221,291.484558 210.737244,276.066010 
	C208.758179,256.789093 197.496857,244.214859 177.890289,239.376373 
	C180.099579,237.256866 181.974670,235.601898 183.685471,233.791687 
	C190.868958,226.190811 193.823502,216.597214 193.721191,206.679962 
	C193.624939,197.348953 190.800446,188.230103 183.847687,180.333908 
	C178.079498,176.530029 172.751022,171.568268 166.447357,169.174408 
	C154.952042,164.809006 143.358139,165.939636 132.295303,172.077805 
	C125.054749,176.095200 120.680656,182.551285 115.773643,188.242859 
z"/>
<path fill="#FAD4AF" opacity="1.000000" stroke="none" 
	d="
M485.122192,317.958710 
	C500.055664,334.155029 501.415070,359.507172 488.366852,378.147461 
	C479.979370,390.129608 467.904266,395.854797 453.969940,397.886475 
	C446.242767,399.013184 438.347412,398.986511 430.596436,399.475372 
	C435.595795,403.687592 440.952789,407.637482 445.642914,412.263458 
	C457.495361,423.953827 462.832916,438.378937 460.887909,454.875092 
	C458.522247,474.938293 444.464355,491.514679 424.162445,495.900635 
	C400.943146,500.916809 380.110016,492.144073 368.895020,469.442535 
	C365.950043,463.481262 363.568420,457.241669 361.028503,451.362305 
	C358.018890,458.283356 355.639404,465.857147 351.663330,472.471100 
	C342.780548,487.246887 330.062408,496.288971 312.051849,497.111298 
	C298.829895,497.714996 287.462952,493.738159 277.089478,485.058350 
	C276.560791,483.104492 276.344727,481.756378 275.731903,480.622772 
	C264.796875,460.393799 267.954834,437.502838 284.266022,421.290894 
	C297.958771,407.681458 314.094849,398.250946 333.336700,394.130127 
	C335.399353,396.210571 337.182770,398.118927 339.132935,400.324158 
	C341.323517,402.045013 343.226715,403.693939 345.391541,404.855164 
	C356.429749,410.776245 367.432556,410.463226 378.062836,403.912872 
	C387.901184,397.850403 393.293243,388.606293 392.695068,377.281189 
	C392.333710,370.438843 388.981842,363.754486 387.238129,356.788239 
	C398.754333,337.057251 414.899597,322.839233 435.426849,313.944641 
	C450.424438,307.446045 465.511658,308.304688 480.010681,316.316681 
	C481.547638,317.165955 483.410522,317.425568 485.122192,317.958710 
z"/>
<path fill="#B3DBDB" opacity="1.000000" stroke="none" 
	d="
M184.119064,180.958832 
	C190.800446,188.230103 193.624939,197.348953 193.721191,206.679962 
	C193.823502,216.597214 190.868958,226.190811 183.685471,233.791687 
	C181.974670,235.601898 180.099579,237.256866 177.890289,239.376373 
	C197.496857,244.214859 208.758179,256.789093 210.737244,276.066010 
	C212.320221,291.484558 206.813751,305.259399 193.136536,313.801636 
	C178.317642,323.056885 165.058640,321.842712 149.824234,313.568634 
	C151.657944,329.976501 147.541214,343.889679 134.376740,353.822296 
	C126.786842,359.548920 117.847816,362.338898 108.417679,361.874084 
	C95.774620,361.250885 84.984718,355.828064 77.407806,345.644379 
	C70.086960,335.804871 67.757050,324.338013 70.251648,311.694855 
	C55.163059,316.129761 41.841747,314.750092 30.262753,304.158081 
	C29.551813,301.359955 28.835922,299.058197 27.909925,296.844299 
	C19.901047,277.696808 28.137844,255.242264 46.804398,246.148087 
	C56.891380,241.233795 67.644920,240.115311 78.739815,241.696198 
	C83.150467,242.324646 87.614052,242.581619 91.982361,243.376175 
	C90.929916,249.012604 89.045341,254.305695 89.190910,259.542328 
	C89.382530,266.435455 92.398430,272.544006 99.182846,276.382446 
	C110.812706,283.848785 122.542740,282.154541 131.442154,272.140900 
	C138.632248,264.050598 139.180145,249.355667 130.910751,241.672180 
	C129.216232,239.737885 127.967407,237.507950 126.082207,236.601425 
	C122.209824,234.739349 117.996727,233.585815 113.942352,231.694366 
	C114.647194,218.650299 119.539482,207.379349 125.360031,196.514832 
	C135.559128,177.477432 160.296341,169.145386 179.397537,179.642761 
	C180.791458,180.408813 182.537003,180.535095 184.119064,180.958832 
z"/>
<path fill="#FAD4AF" opacity="1.000000" stroke="none" 
	d="
M291.894531,399.040009 
	C280.037384,399.011597 267.996277,399.946381 256.815430,394.924164 
	C251.045380,392.332367 245.698914,388.797577 240.262512,385.157349 
	C240.115250,383.746368 240.032867,382.772095 239.593521,382.001282 
	C228.446823,362.445465 231.551788,339.758362 247.580383,323.920807 
	C262.655457,309.025421 285.661194,305.517212 305.733582,315.462463 
	C312.794983,318.961243 319.412354,323.356262 327.168823,327.889313 
	C326.485382,325.098419 326.044159,322.969543 325.440948,320.887573 
	C322.048889,309.179504 319.269714,297.392181 322.473206,285.178192 
	C330.306519,255.311813 362.678345,240.633118 390.502960,254.199753 
	C392.247131,255.050156 394.242737,255.384903 396.121368,255.959534 
	C404.183411,263.447998 408.190918,272.858612 408.973328,283.680481 
	C409.804443,295.176361 408.108978,306.340546 403.979218,317.497162 
	C403.968109,317.873016 404.036316,317.923584 403.722656,318.015442 
	C403.308868,318.721497 403.208740,319.335693 402.833801,320.163330 
	C396.827942,331.653412 391.039886,342.893036 381.683350,351.879425 
	C371.097870,344.687347 360.016724,342.280670 348.362762,347.413635 
	C331.838623,354.691681 325.810608,369.601196 330.550018,388.989441 
	C318.062225,394.815308 305.111786,397.436646 291.894531,399.040009 
z"/>
<path fill="#FDAFAB" opacity="1.000000" stroke="none" 
	d="
M402.855316,85.000648 
	C408.470245,93.129906 411.310730,102.081802 411.008698,112.012039 
	C410.397217,132.114502 392.965332,150.231506 372.945557,150.003754 
	C370.494690,149.975861 368.043243,149.999939 365.217560,149.999939 
	C375.926270,167.463837 375.988892,184.567474 363.564331,200.511902 
	C354.576416,212.046051 341.574066,216.769348 327.355194,214.754944 
	C309.164581,212.177872 297.321503,201.319885 292.480377,182.703461 
	C288.768433,185.836105 285.418457,189.155029 281.600952,191.798828 
	C266.138092,202.507553 245.754089,200.569595 233.304413,189.618942 
	C232.803635,188.473145 232.778885,187.745926 232.443985,187.213959 
	C222.198822,170.940231 225.705109,145.889893 243.082230,134.411011 
	C255.273682,126.357658 268.129944,120.081047 283.151123,119.334541 
	C285.510712,123.796661 287.721497,127.921776 290.102112,132.341721 
	C297.301147,139.064148 305.232147,141.494537 314.549286,138.335495 
	C323.347931,135.352280 328.625519,129.263245 330.701996,120.335793 
	C332.444305,112.844917 329.478790,106.358986 326.423157,99.952469 
	C328.184631,99.052254 329.719788,98.347313 331.005188,97.327591 
	C340.636902,89.686676 351.418304,84.386169 363.149567,80.752800 
	C375.415985,76.953682 387.285187,76.658554 398.805206,83.153008 
	C399.753723,83.687737 401.005920,83.683762 402.117035,83.930099 
	C402.117035,83.930099 402.041443,83.947296 402.130951,84.130417 
	C402.359589,84.609558 402.571198,84.838593 402.855316,85.000648 
z"/>
<path fill="#FDAFAB" opacity="1.000000" stroke="none" 
	d="
M352.115936,31.960760 
	C360.570190,43.666431 363.702240,56.233116 357.949463,70.824387 
	C355.943939,72.190231 354.252777,72.841751 352.637787,73.646133 
	C343.804718,78.045471 334.868011,82.261116 326.239197,87.032234 
	C323.406616,88.598442 321.389038,91.638519 318.619171,93.945862 
	C309.085815,89.909225 300.375885,91.050285 291.996887,95.754356 
	C289.323334,84.221024 288.145569,73.141121 288.710815,61.513088 
	C289.731720,40.510757 312.980804,20.643171 334.856903,25.793638 
	C339.991669,27.002567 345.043884,28.562038 350.134094,29.960238 
	C350.481598,29.957926 350.745941,30.105022 351.109528,30.860983 
	C351.566559,31.533878 351.841248,31.747320 352.115936,31.960760 
z"/>
<path fill="#B3DBDB" opacity="1.000000" stroke="none" 
	d="
M108.191559,177.021454 
	C110.718918,180.761917 113.246284,184.502396 115.888046,188.955688 
	C115.304626,191.509705 114.675148,193.380280 113.897903,195.187286 
	C108.708138,207.252899 104.746117,219.602676 104.684334,233.111267 
	C101.295731,235.209290 98.205818,237.143173 94.772095,238.919098 
	C82.121132,234.254059 69.394196,232.218903 56.353050,233.282623 
	C53.127029,233.545761 51.765831,232.601089 50.575180,230.151489 
	C46.549534,221.869217 45.182594,213.402222 46.825924,204.114700 
	C51.087143,180.031815 77.874832,164.405136 102.566795,175.246933 
	C104.356415,176.032730 106.312744,176.438812 108.191559,177.021454 
z"/>
<path fill="#FDAFAB" opacity="1.000000" stroke="none" 
	d="
M239.870453,122.039444 
	C235.319397,119.280884 230.768356,116.522324 226.055817,113.074799 
	C222.358734,103.957710 219.529846,95.719101 220.736893,86.013451 
	C223.827377,61.163807 251.791672,44.527100 276.672180,55.531403 
	C278.130005,56.176178 279.816528,58.359688 279.846161,59.857796 
	C280.122223,73.816231 283.186035,87.150429 288.028595,100.460754 
	C286.340454,103.889839 284.737305,106.984703 282.674500,110.056046 
	C273.856323,111.667145 265.378479,112.861580 257.179108,115.083435 
	C251.218887,116.698509 245.626724,119.671753 239.870453,122.039444 
z"/>
<path fill="#FBDDBE" opacity="1.000000" stroke="none" 
	d="
M395.985901,255.646561 
	C394.242737,255.384903 392.247131,255.050156 390.502960,254.199753 
	C362.678345,240.633118 330.306519,255.311813 322.473206,285.178192 
	C319.269714,297.392181 322.048889,309.179504 325.440948,320.887573 
	C326.044159,322.969543 326.485382,325.098419 327.168823,327.889313 
	C319.412354,323.356262 312.794983,318.961243 305.733582,315.462463 
	C285.661194,305.517212 262.655457,309.025421 247.580383,323.920807 
	C231.551788,339.758362 228.446823,362.445465 239.593521,382.001282 
	C240.032867,382.772095 240.115250,383.746368 240.127655,384.832458 
	C230.929886,376.040222 225.399109,365.725281 224.836273,352.553162 
	C224.201859,337.706116 228.935196,325.210815 239.441177,315.247467 
	C254.501007,300.965485 276.210602,296.452820 295.613129,306.040619 
	C302.926056,309.654327 309.788818,314.178955 317.312286,318.738953 
	C318.106415,319.334320 318.445038,319.479095 318.783661,319.623871 
	C318.549988,319.056854 318.316315,318.489838 318.082642,317.922821 
	C313.947266,306.426178 311.956055,294.566071 313.067017,282.391541 
	C314.306885,268.803925 321.274780,258.149261 331.911438,250.096588 
	C346.669098,238.924026 363.264374,238.206635 379.978638,244.296402 
	C385.832611,246.429260 390.591492,251.567642 395.985901,255.646561 
z"/>
<path fill="#C2E2E2" opacity="1.000000" stroke="none" 
	d="
M108.043915,176.708954 
	C106.312744,176.438812 104.356415,176.032730 102.566795,175.246933 
	C77.874832,164.405136 51.087143,180.031815 46.825924,204.114700 
	C45.182594,213.402222 46.549534,221.869217 50.575180,230.151489 
	C51.765831,232.601089 53.127029,233.545761 56.353050,233.282623 
	C69.394196,232.218903 82.121132,234.254059 94.616524,239.197388 
	C93.887688,240.758316 92.970612,241.883011 92.053535,243.007721 
	C87.614052,242.581619 83.150467,242.324646 78.739815,241.696198 
	C67.644920,240.115311 56.891380,241.233795 46.804398,246.148087 
	C28.137844,255.242264 19.901047,277.696808 27.909925,296.844299 
	C28.835922,299.058197 29.551813,301.359955 30.128834,303.835754 
	C16.394552,292.196930 13.418546,276.877411 18.372000,260.767639 
	C22.704641,246.676895 33.690659,236.380051 50.013107,233.758896 
	C41.716713,224.746536 36.895702,214.197067 37.205330,202.236710 
	C37.482212,191.541443 41.444477,181.480682 49.514874,174.227142 
	C68.456139,157.203079 94.548508,160.465164 108.043915,176.708954 
z"/>
<path fill="#FDBEBB" opacity="1.000000" stroke="none" 
	d="
M288.113617,100.126534 
	C283.186035,87.150429 280.122223,73.816231 279.846161,59.857796 
	C279.816528,58.359688 278.130005,56.176178 276.672180,55.531403 
	C251.791672,44.527100 223.827377,61.163807 220.736893,86.013451 
	C219.529846,95.719101 222.358734,103.957710 225.927368,112.757065 
	C218.335358,108.725227 215.000717,101.151360 213.167984,93.365852 
	C207.728302,70.257622 220.157242,49.726509 243.749069,44.437859 
	C255.527405,41.797474 267.578522,43.981945 277.614899,52.082806 
	C278.091187,52.467251 278.629242,52.775158 279.703827,53.500046 
	C282.285309,36.338299 290.777496,23.543558 307.149750,18.671753 
	C322.870117,13.993933 337.957123,16.440718 349.994507,29.648251 
	C345.043884,28.562038 339.991669,27.002567 334.856903,25.793638 
	C312.980804,20.643171 289.731720,40.510757 288.710815,61.513088 
	C288.145569,73.141121 289.323334,84.221024 291.844086,96.017456 
	C290.507568,97.833794 289.310577,98.980164 288.113617,100.126534 
z"/>
<path fill="#FBDDBF" opacity="1.000000" stroke="none" 
	d="
M291.841736,399.383759 
	C305.111786,397.436646 318.062225,394.815308 330.712402,389.292908 
	C331.850891,391.039062 332.454193,392.498566 333.057495,393.958038 
	C314.094849,398.250946 297.958771,407.681458 284.266022,421.290894 
	C267.954834,437.502838 264.796875,460.393799 275.731903,480.622772 
	C276.344727,481.756378 276.560791,483.104492 276.959290,484.736572 
	C263.540924,472.639191 258.823242,457.419525 261.870819,439.379425 
	C265.000916,420.850952 277.391602,409.601776 291.841736,399.383759 
z"/>
<path fill="#FDBEBB" opacity="1.000000" stroke="none" 
	d="
M239.809021,122.385315 
	C245.626724,119.671753 251.218887,116.698509 257.179108,115.083435 
	C265.378479,112.861580 273.856323,111.667145 282.645569,110.496971 
	C283.051636,113.640121 283.026978,116.318825 283.002350,118.997536 
	C268.129944,120.081047 255.273682,126.357658 243.082230,134.411011 
	C225.705109,145.889893 222.198822,170.940231 232.443985,187.213959 
	C232.778885,187.745926 232.803635,188.473145 232.983368,189.472260 
	C210.174271,171.788818 214.106628,135.408768 239.809021,122.385315 
z"/>
<path fill="#C2E2E2" opacity="1.000000" stroke="none" 
	d="
M104.983025,232.947128 
	C104.746117,219.602676 108.708138,207.252899 113.897903,195.187286 
	C114.675148,193.380280 115.304626,191.509705 116.018745,189.284729 
	C120.680656,182.551285 125.054749,176.095200 132.295303,172.077805 
	C143.358139,165.939636 154.952042,164.809006 166.447357,169.174408 
	C172.751022,171.568268 178.079498,176.530029 183.983368,180.646362 
	C182.537003,180.535095 180.791458,180.408813 179.397537,179.642761 
	C160.296341,169.145386 135.559128,177.477432 125.360031,196.514832 
	C119.539482,207.379349 114.647194,218.650299 113.539200,231.666351 
	C110.406067,232.372116 107.694542,232.659622 104.983025,232.947128 
z"/>
<path fill="#FBDDBF" opacity="1.000000" stroke="none" 
	d="
M382.000214,352.020020 
	C391.039886,342.893036 396.827942,331.653412 403.195007,320.033508 
	C403.899445,319.101349 403.967896,318.512451 404.036316,317.923584 
	C404.036316,317.923584 403.968109,317.873016 403.930237,317.888306 
	C405.565735,317.137573 407.417694,316.620056 408.884186,315.566193 
	C420.346313,307.328888 432.715302,301.181366 447.094360,301.112457 
	C461.856781,301.041779 474.521973,306.671448 484.986694,317.645447 
	C483.410522,317.425568 481.547638,317.165955 480.010681,316.316681 
	C465.511658,308.304688 450.424438,307.446045 435.426849,313.944641 
	C414.899597,322.839233 398.754333,337.057251 386.972229,356.652100 
	C385.632874,356.145691 384.823944,355.564545 383.874969,354.717865 
	C383.156708,353.641571 382.578461,352.830780 382.000214,352.020020 
z"/>
<path fill="#FDBFBC" opacity="1.000000" stroke="none" 
	d="
M318.998749,94.004616 
	C321.389038,91.638519 323.406616,88.598442 326.239197,87.032234 
	C334.868011,82.261116 343.804718,78.045471 352.637787,73.646133 
	C354.252777,72.841751 355.943939,72.190231 357.823456,71.186325 
	C365.504639,69.736954 372.887543,69.249977 380.450806,70.731750 
	C389.182617,72.442436 395.800537,77.268173 401.977722,83.620605 
	C401.005920,83.683762 399.753723,83.687737 398.805206,83.153008 
	C387.285187,76.658554 375.415985,76.953682 363.149567,80.752800 
	C351.418304,84.386169 340.636902,89.686676 331.005188,97.327591 
	C329.719788,98.347313 328.184631,99.052254 326.161041,99.844864 
	C325.063782,99.515465 324.570618,99.244171 323.910339,98.686775 
	C322.161713,96.935318 320.580231,95.469971 318.998749,94.004616 
z"/>
<path fill="#FDBEBB" opacity="1.000000" stroke="none" 
	d="
M352.024750,31.702538 
	C351.841248,31.747320 351.566559,31.533878 351.162933,31.090637 
	C351.333832,31.055330 351.633698,31.249821 352.024750,31.702538 
z"/>
<path fill="#FDBFBC" opacity="1.000000" stroke="none" 
	d="
M402.895569,84.729843 
	C402.571198,84.838593 402.359589,84.609558 402.135620,84.091934 
	C402.345795,84.066551 402.640778,84.262787 402.895569,84.729843 
z"/>
<path fill="#FBF1D6" opacity="1.000000" stroke="none" 
	d="
M384.014984,354.983398 
	C384.823944,355.564545 385.632874,356.145691 386.707733,356.863007 
	C388.981842,363.754486 392.333710,370.438843 392.695068,377.281189 
	C393.293243,388.606293 387.901184,397.850403 378.062836,403.912872 
	C367.432556,410.463226 356.429749,410.776245 345.391541,404.855164 
	C343.226715,403.693939 341.323517,402.045013 339.384583,400.072144 
	C338.648315,395.207947 337.313690,390.918732 337.092316,386.572815 
	C335.970825,364.556580 356.912292,348.294006 378.050171,354.471680 
	C379.927917,355.020447 382.021606,354.830322 384.014984,354.983398 
z"/>
<path fill="#FCF4DD" opacity="1.000000" stroke="none" 
	d="
M383.874969,354.717896 
	C382.021606,354.830322 379.927917,355.020447 378.050171,354.471680 
	C356.912292,348.294006 335.970825,364.556580 337.092316,386.572815 
	C337.313690,390.918732 338.648315,395.207947 339.217896,399.775299 
	C337.182770,398.118927 335.399353,396.210571 333.336700,394.130127 
	C332.454193,392.498566 331.850891,391.039062 331.085205,389.276123 
	C325.810608,369.601196 331.838623,354.691681 348.362762,347.413635 
	C360.016724,342.280670 371.097870,344.687347 381.683350,351.879425 
	C382.578461,352.830780 383.156708,353.641571 383.874969,354.717896 
z"/>
<path fill="#FBF1D6" opacity="1.000000" stroke="none" 
	d="
M131.068359,241.975632 
	C139.180145,249.355667 138.632248,264.050598 131.442154,272.140900 
	C122.542740,282.154541 110.812706,283.848785 99.144386,275.978302 
	C93.245995,259.650330 101.125931,246.582489 112.579865,243.035980 
	C118.303398,241.263763 124.878448,242.241638 131.068359,241.975632 
z"/>
<path fill="#FBF4DE" opacity="1.000000" stroke="none" 
	d="
M130.910751,241.672180 
	C124.878448,242.241638 118.303398,241.263763 112.579865,243.035980 
	C101.125931,246.582489 93.245995,259.650330 98.917725,275.719482 
	C92.398430,272.544006 89.382530,266.435455 89.190910,259.542328 
	C89.045341,254.305695 90.929916,249.012604 91.982361,243.376160 
	C92.970612,241.883011 93.887688,240.758316 94.960335,239.355347 
	C98.205818,237.143173 101.295731,235.209290 104.684334,233.111267 
	C107.694542,232.659622 110.406067,232.372116 113.520737,232.112625 
	C117.996727,233.585815 122.209824,234.739349 126.082207,236.601425 
	C127.967407,237.507950 129.216232,239.737885 130.910751,241.672180 
z"/>
<path fill="#000000" opacity="1.000000" stroke="none" 
	d="
M403.722656,318.015442 
	C403.967896,318.512451 403.899445,319.101349 403.469849,319.820038 
	C403.208740,319.335693 403.308868,318.721497 403.722656,318.015442 
z"/>
<path fill="#FBF1D6" opacity="1.000000" stroke="none" 
	d="
M324.077454,98.972870 
	C324.570618,99.244171 325.063782,99.515465 325.819061,99.894371 
	C329.478790,106.358986 332.444305,112.844917 330.701996,120.335793 
	C328.625519,129.263245 323.347931,135.352280 314.549286,138.335495 
	C305.232147,141.494537 297.301147,139.064148 290.361145,132.087677 
	C290.371521,130.433655 290.485992,129.272522 290.184570,128.231888 
	C286.421112,115.239128 293.264740,102.514397 306.024780,98.044853 
	C312.329712,95.836388 318.109070,97.840309 324.077454,98.972870 
z"/>
<path fill="#FCF2DC" opacity="1.000000" stroke="none" 
	d="
M323.910339,98.686768 
	C318.109070,97.840309 312.329712,95.836388 306.024780,98.044853 
	C293.264740,102.514397 286.421112,115.239128 290.184570,128.231888 
	C290.485992,129.272522 290.371521,130.433655 290.191284,131.792847 
	C287.721497,127.921776 285.510712,123.796661 283.151123,119.334541 
	C283.026978,116.318825 283.051636,113.640121 283.105225,110.520493 
	C284.737305,106.984703 286.340454,103.889839 288.028595,100.460754 
	C289.310577,98.980164 290.507568,97.833794 291.857300,96.424316 
	C300.375885,91.050285 309.085815,89.909225 318.619171,93.945877 
	C320.580231,95.469971 322.161713,96.935318 323.910339,98.686768 
z"/>
<path fill="#000000" opacity="1.000000" stroke="none" 
	d="
M317.902039,318.123901 
	C318.316315,318.489838 318.549988,319.056854 318.783661,319.623871 
	C318.445038,319.479095 318.106415,319.334320 317.574768,318.967529 
	C317.494965,318.605316 317.608185,318.465179 317.902039,318.123901 
z"/>
</svg>