<svg width="41" height="41" viewBox="0 0 41 41" fill="none" xmlns="http://www.w3.org/2000/svg">
<path d="M20.6397 40.2099C31.6853 40.2099 40.6396 31.2556 40.6396 20.21C40.6396 9.16426 31.6853 0.209961 20.6397 0.209961C9.59397 0.209961 0.639648 9.16426 0.639648 20.21C0.639648 31.2556 9.59397 40.2099 20.6397 40.2099Z" fill="#1877F2"/>
<path d="M24.5797 21.8467L25.0835 18.5624H21.9323V16.4311C21.9323 15.5325 22.3725 14.6567 23.7839 14.6567H25.2166V11.8606C25.2166 11.8606 23.9164 11.6387 22.6733 11.6387C20.078 11.6387 18.3817 13.2116 18.3817 16.0592V18.5624H15.4968V21.8467H18.3817V29.7863C19.5581 29.9704 20.7559 29.9704 21.9323 29.7863V21.8467H24.5797Z" fill="white"/>
</svg>
