<svg width="41" height="41" viewBox="0 0 41 41" fill="none" xmlns="http://www.w3.org/2000/svg">
<path d="M20.6397 40.2099C31.6853 40.2099 40.6396 31.2556 40.6396 20.21C40.6396 9.16426 31.6853 0.209961 20.6397 0.209961C9.59397 0.209961 0.639648 9.16426 0.639648 20.21C0.639648 31.2556 9.59397 40.2099 20.6397 40.2099Z" fill="black"/>
<path d="M29.9885 20.9854C29.9885 20.2337 29.9274 19.6851 29.7954 19.1162H21.2111V22.5093H26.2499C26.1484 23.3525 25.5998 24.6224 24.3807 25.4757L24.3636 25.5893L27.0778 27.6919L27.2658 27.7107C28.9928 26.1157 29.9885 23.769 29.9885 20.9854Z" fill="#4285F4"/>
<path d="M21.2115 29.9246C23.6801 29.9246 25.7525 29.1119 27.2663 27.71L24.3811 25.4749C23.609 26.0134 22.5728 26.3892 21.2115 26.3892C18.7937 26.3892 16.7416 24.7943 16.0101 22.5898L15.9029 22.5989L13.0806 24.7831L13.0437 24.8857C14.5472 27.8725 17.6355 29.9246 21.2115 29.9246Z" fill="#34A853"/>
<path d="M16.0099 22.5899C15.8168 22.021 15.7051 21.4114 15.7051 20.7816C15.7051 20.1517 15.8168 19.5421 15.9997 18.9732L15.9946 18.8521L13.1369 16.6328L13.0434 16.6773C12.4238 17.9167 12.0682 19.3085 12.0682 20.7816C12.0682 22.2546 12.4238 23.6463 13.0434 24.8857L16.0099 22.5899Z" fill="#FBBC05"/>
<path d="M21.2115 15.174C22.9284 15.174 24.0865 15.9156 24.7468 16.5353L27.3272 14.0159C25.7424 12.5428 23.6801 11.6387 21.2115 11.6387C17.6355 11.6387 14.5472 13.6908 13.0437 16.6775L15.9999 18.9734C16.7416 16.769 18.7937 15.174 21.2115 15.174Z" fill="#EB4335"/>
</svg>
