<svg width="20" height="20" viewBox="0 0 20 20" fill="#003996" xmlns="http://www.w3.org/2000/svg">
    <path d="M17.7628 6.83161H12.4442V3.14978C12.4435 2.55577 12.2075 1.98631 11.788 1.56621C11.3687 1.14611 10.8 0.909932 10.2069 0.90918H2.2373C1.6442 0.909914 1.07547 1.14611 0.656175 1.56621C0.236725 1.98631 0.000756858 2.55577 5.96312e-06 3.14978V8.14116C-0.00102066 8.58431 0.130534 9.01749 0.377781 9.38484C1.16622 10.905 4.8028 13.1523 4.84223 13.1752C4.91981 13.2216 5.00825 13.2466 5.09844 13.2476C5.26255 13.2488 5.4164 13.1676 5.5082 13.0312C5.60001 12.8951 5.61761 12.7218 5.55513 12.5699C5.2913 11.8575 5.08699 11.1246 4.94402 10.3785H7.55571V14.0636C7.55659 14.6573 7.79256 15.2265 8.21214 15.646C8.63159 16.0654 9.20016 16.3011 9.79296 16.3009H15.056C14.913 17.0471 14.7087 17.7799 14.4449 18.4923C14.3824 18.6442 14.4 18.8175 14.4918 18.9537C14.5836 19.09 14.7375 19.1712 14.9016 19.17C14.9918 19.169 15.0802 19.144 15.1578 19.0976C15.1972 19.0746 18.8339 16.8274 19.6222 15.3073C19.8695 14.9399 20.001 14.5067 20 14.0636V9.07221C19.9993 8.4782 19.7633 7.90874 19.3438 7.48864C18.9245 7.06854 18.3558 6.83236 17.7627 6.83161H17.7628ZM6.291 8.06867C5.65804 8.43485 4.93571 8.61714 4.20494 8.5951H4.19512C3.92306 8.5951 3.70234 8.37419 3.70234 8.10157C3.70234 7.82909 3.92306 7.60803 4.19512 7.60803H4.20494C4.63994 7.61787 5.07241 7.53958 5.47632 7.37771C5.1456 6.98597 4.88559 6.53944 4.70767 6.05838C4.6097 5.80398 4.73612 5.51815 4.99013 5.42C5.24414 5.32188 5.52954 5.44865 5.62753 5.70305C5.7736 6.11082 5.99916 6.48553 6.29102 6.80526C6.69346 6.31643 6.94467 5.72065 7.01375 5.09095H4.19512C3.92307 5.09095 3.70235 4.87004 3.70235 4.59742C3.70235 4.32494 3.92307 4.10388 4.19512 4.10388H5.74238L5.74252 3.23857C5.74252 2.96609 5.9631 2.74503 6.2353 2.74503C6.50735 2.74503 6.72807 2.96609 6.72807 3.23857V4.10388H8.2721C8.54415 4.10388 8.76488 4.32494 8.76488 4.59742C8.76488 4.87004 8.54415 5.09095 8.2721 5.09095H8.00592C7.93229 5.92701 7.61594 6.72299 7.09591 7.38103C7.4165 7.51749 7.7597 7.59343 8.10785 7.60474C7.87056 7.87325 7.70349 8.19668 7.62153 8.54567C7.15016 8.47943 6.69744 8.31697 6.29102 8.06857L6.291 8.06867ZM19.0145 14.0637C19.0172 14.3184 18.9389 14.5672 18.791 14.7744C18.7715 14.8021 18.755 14.8319 18.7418 14.8632C18.3541 15.6002 16.8988 16.7222 15.7949 17.4921C16.0151 16.6433 16.1267 15.9293 16.1333 15.8831H16.1334C16.1554 15.7415 16.1147 15.5973 16.0217 15.4883C15.9274 15.3795 15.7911 15.316 15.6473 15.3139H9.7929C9.46145 15.3142 9.14334 15.1826 8.90869 14.9482C8.67403 14.7138 8.54189 14.3956 8.54116 14.0637V9.07229C8.5416 8.74003 8.67359 8.42142 8.90824 8.1864C9.1429 7.95139 9.46101 7.81919 9.79287 7.81875H17.7625C18.0944 7.81919 18.4125 7.95139 18.6471 8.1864C18.8818 8.42142 19.0138 8.74003 19.0142 9.07229L19.0145 14.0637ZM15.5585 12.2241V12.2225L14.2481 8.94176L14.2455 8.93648C14.2374 8.91841 14.2282 8.90078 14.2178 8.88389C14.2115 8.87273 14.2066 8.86083 14.1997 8.85099C14.1896 8.83704 14.1786 8.82382 14.1669 8.81118C14.1581 8.79973 14.1487 8.78871 14.1387 8.77828C14.1274 8.768 14.1157 8.75831 14.1035 8.74935C14.0912 8.73759 14.0783 8.72658 14.0648 8.71644C14.0537 8.7088 14.0407 8.70322 14.029 8.69676L14.0289 8.69661C14.0127 8.68707 13.9962 8.6784 13.979 8.67061L13.9734 8.66768C13.9613 8.66268 13.9491 8.66077 13.9369 8.6571V8.65725C13.9203 8.65137 13.9035 8.64652 13.8863 8.64271C13.8702 8.63992 13.8541 8.63786 13.8378 8.63683C13.8221 8.63477 13.8064 8.6336 13.7907 8.63316C13.7737 8.63316 13.7578 8.63551 13.7398 8.63712C13.7218 8.63874 13.7099 8.63947 13.6951 8.64241H13.6952C13.6772 8.64638 13.6593 8.65137 13.642 8.65754C13.6305 8.66151 13.6187 8.66312 13.6072 8.66768L13.6016 8.67061H13.6015C13.5845 8.67825 13.5679 8.68692 13.5519 8.69661C13.5398 8.70322 13.527 8.7088 13.5159 8.7163C13.5047 8.72393 13.4909 8.73642 13.4785 8.74655C13.466 8.75669 13.4532 8.76565 13.4419 8.77681C13.4308 8.78798 13.4242 8.79855 13.415 8.80972V8.80986C13.4032 8.82294 13.3922 8.83689 13.3821 8.85128C13.3752 8.86142 13.3702 8.87332 13.3641 8.88419C13.3538 8.90137 13.3444 8.91929 13.336 8.93751L13.3334 8.9428L12.0233 12.2235V12.2251L11.363 13.8782C11.3117 14.0002 11.3115 14.1377 11.3626 14.2599C11.4136 14.382 11.5114 14.4785 11.6342 14.5277C11.7569 14.5769 11.8942 14.5745 12.0154 14.5214C12.1363 14.4682 12.2309 14.3684 12.2779 14.2446L12.8111 12.9097H14.7721L15.3053 14.2446H15.3052C15.3521 14.3684 15.4467 14.4682 15.5677 14.5214C15.6888 14.5745 15.8261 14.5769 15.9489 14.5277C16.0716 14.4785 16.1694 14.382 16.2205 14.2599C16.2714 14.1377 16.2714 14.0002 16.22 13.8782L15.5585 12.2241ZM13.2037 11.9216L13.7901 10.4538L14.3761 11.9216H13.2037Z" />
</svg>
