<svg xmlns="http://www.w3.org/2000/svg" xmlns:xlink="http://www.w3.org/1999/xlink" version="1.1"
    x="0px" y="0px" viewBox="0 0 100 125" style="enable-background:new 0 0 100 100;" xml:space="preserve">
    <g>
        <g>
            <path fill="#003996" stroke="#003996" stroke-width="5" d="M59.6,58c0-5.4-3.2-9-10-11.5c-5.1-1.9-7.2-3-7.2-5.4c0-1.9,1.8-3.7,5.6-3.7c1.8,0,3.4,0.3,4.8,0.6 c1.9,0.5,3.8-0.7,4.3-2.5c0.5-1.9-0.6-4-2.6-4.4c-1.3-0.3-2.9-0.6-4.6-0.7v-4.6c0-1.8-1.5-3.3-3.4-3.3c-1.9,0-3.4,1.5-3.4,3.3v4.6 c0,0.2,0,0.3,0.1,0.5c-6.1,1.5-9.8,5.7-9.8,11c0,5.6,4.3,9.1,10.7,11.4c4.7,1.6,6.5,3,6.5,5.4c0,2.5-2.1,4.2-6.2,4.2 c-2.2,0-4.3-0.4-6.2-1c-2-0.6-4,0.6-4.5,2.6l0,0.1c-0.5,1.8,0.6,3.7,2.4,4.3c2,0.6,4.5,1,7,1.1v4.3c0,1.8,1.5,3.3,3.4,3.3 c1.9,0,3.4-1.5,3.4-3.3v-4.6c0-0.1,0-0.2,0-0.3C56.4,67.6,59.6,63.1,59.6,58z"/>
        </g>
        <g>
            <path fill="#003996" stroke="#003996" stroke-width="5"  d="M87.3,59.3c0.7-3,1-6.1,1-9.3c0-22.9-18.8-41.5-41.9-41.5C23.4,8.5,4.6,27.1,4.6,50 c0,11.2,4.5,21.7,12.5,29.6 c7.3,7.1,17,11.3,27.2,11.8c0.7,0,1.4,0,2.2,0c0.7,0,1.4,0,2.1,0c6.1-0.3,11.9-1.9,17.2-4.6 c3.2,2.9,7.4,4.7,12,4.7 c9.7,0,17.6-7.8,17.6-17.5C95.5,67.8,92.3,62.4,87.3,59.3z M48.5,88.4c-1.3,0.1-2.7,0.1-4,0 C35,88,26.1,84,19.3,77.4 C11.8,70.1,7.7,60.4,7.7,50 c0-21.2,17.4-38.5,38.8-38.5S85.3,28.8,85.3,50 c0,2.7-0.3,5.3-0.8,7.8 c-2.1-0.8-4.3-1.3-6.7-1.3 c-9.7,0-17.6,7.9-17.6,17.5 c0,3.9,1.3,7.5,3.5,10.5 C59,86.8,53.9,88.2,48.5,88.4z M77.9,88.5c-3.5,0-6.7-1.2-9.2-3.3 c-0.8-0.7-1.6-1.4-2.2-2.2 c-2-2.5-3.2-5.6-3.2-9 c0-8,6.5-14.5,14.6-14.5 c2.1,0,4.1,0.4,5.9,1.3 c1,0.4,1.9,0.9,2.7,1.6 c3.6,2.6,6,6.9,6,11.6 C92.5,82,85.9,88.5,77.9,88.5z"/>
        </g>
        <g>
            <g>
                <path fill="#003996" d="M83.2,83.3c-0.4,0-0.8-0.2-1.1-0.5l-6.3-6.7c-0.3-0.3-0.4-0.7-0.4-1v-9.3c0-0.8,0.7-1.5,1.5-1.5 s1.5,0.7,1.5,1.5v8.7 l5.9,6.2c0.6,0.6,0.6,1.6-0.1,2.1C84,83.2,83.6,83.3,83.2,83.3z"/>
            </g>
        </g>
    </g>
</svg>
