<svg xmlns="http://www.w3.org/2000/svg" viewBox="0 0 64 80" x="0px" y="0px">
    <title>1</title>
    <g>
        <path
            d="M19,36H31v8H19ZM52,55H12V7H52ZM24,20a8,8,0,1,0,8-8A8.00917,8.00917,0,0,0,24,20Zm9,15a1,1,0,0,0-1-1H18a1,1,0,0,0-1,1V45a1,1,0,0,0,1,1H32a1,1,0,0,0,1-1Zm13.75293.65869a1.00039,1.00039,0,0,0-1.50586-1.31738l-6.2959,7.1958L36.707,39.293A.99989.99989,0,0,0,35.293,40.707l3,3a1.00042,1.00042,0,0,0,1.46-.04834ZM26,20a6,6,0,1,1,6,6A6.00656,6.00656,0,0,1,26,20Zm7,1v1H30a1,1,0,0,0,0,2h1a1,1,0,0,0,2,0,2.00229,2.00229,0,0,0,2-2V21a2.00229,2.00229,0,0,0-2-2H31V18h3a1,1,0,0,0,0-2H33a1,1,0,0,0-2,0,2.002,2.002,0,0,0-2,2v1a2.002,2.002,0,0,0,2,2ZM52,5V3a2.00229,2.00229,0,0,0-2-2H14a2.002,2.002,0,0,0-2,2V5Zm0,52v4a2.00229,2.00229,0,0,1-2,2H14a2.002,2.002,0,0,1-2-2V57ZM35,60a.99974.99974,0,0,0-1-1H30a1,1,0,0,0,0,2h4A.99974.99974,0,0,0,35,60Z"
            fill="#003996"
        />
    </g>
</svg>
