<svg xmlns="http://www.w3.org/2000/svg" xmlns:xlink="http://www.w3.org/1999/xlink" version="1.1"
    x="0px" y="0px" viewBox="0 0 90 112.5" enable-background="new 0 0 90 90" xml:space="preserve">
    <path fill="#003996" stroke="#003996" stroke-width="5" d="M72.017,66.501l0.443,1.172c0.905,2.417,0.828,3.75,0.161,4.766c-0.661,1.01-2.172,1.885-4.516,2.765l-9.229,3.469  c-2.344,0.88-4.052,1.219-5.219,0.896c-1.167-0.328-2.104-1.281-3.011-3.693c-0.036-0.088-0.218-0.661-0.396-1.191L72.017,66.501z   M26.261,56.928l27.781,0.021c-0.104,0.448-0.24,0.912-0.401,1.417c-0.5,1.572-1.15,3.468-1.099,5.801l-23.968-0.03  c-1.298,0-2.319-1.017-2.319-2.323L26.261,56.928z M23.422,41.761l0.964,0.553l-0.01,6.223l-2.563-1.489  c-0.691-0.4-1.12-1.208-1.058-2.234c0.063-1.026,0.662-2.057,1.517-2.62C22.646,41.944,23.042,41.81,23.422,41.761z M63.25,33.73  l5.86,8.672c1.031,1.525,1.536,3.083,1.473,5l-0.442,13.912c0,0.119,0.021,0.244,0.068,0.359l1.146,3.057l-21.803,8.193  l-4.448-6.875l7.631,0.01c0.109,0.615,0.255,1.246,0.484,1.912c0.391,1.229,2.24,0.599,1.792-0.614   c-1.266-3.678-0.35-5.995,0.426-8.412c0.385-1.208,0.754-2.448,0.672-3.818c-0.088-1.369-0.656-2.812-1.938-4.297l-6.453-7.49   c-1.932-2.249-1.688-4.604-0.453-5.833c1.781-1.781,4.552-0.667,6.052,0.475c4.032,3.056,7.827,6.015,10.802,9.864   c0.755,1.094,2.354-0.15,1.49-1.156c-0.75-0.969-1.541-1.88-2.369-2.75L63.25,33.73z M21.615,30.679l2.776,1.631l-0.005,7.828   l-6.14-3.563c-0.855-0.495-1.387-1.484-1.324-2.678c0.063-1.193,0.74-2.369,1.745-3.011C19.698,30.23,20.709,30.148,21.615,30.679z    M24.402,22.272l-0.006,7.838l-3.271-1.896c-0.854-0.5-1.385-1.489-1.324-2.682c0.063-1.193,0.74-2.37,1.746-3.016   C22.542,21.882,23.417,21.996,24.402,22.272z M28.621,10.34l30.448,0.03c1.295,0,2.312,1.027,2.312,2.333L61.35,42.091   c-2.162-2.005-4.491-3.808-6.871-5.595c-0.713-0.577-1.432-1.006-2.14-1.307l3.416-3.079c0.376-0.344,0.673-0.687,0.866-1.078   c0.53-1.105,0.234-1.938-0.667-2.458c-0.391-0.224-0.833-0.323-1.35-0.402l-6.063-0.891l-2.656-5.468   c-0.426-0.875-1.131-1.573-2.067-1.573c-0.938,0-1.635,0.697-2.058,1.573L39.1,27.283l-6.068,0.891   c-0.515,0.079-0.974,0.15-1.348,0.402c-1.032,0.682-1.058,1.448-0.658,2.458c0.188,0.484,0.579,0.818,0.891,1.104l4.267,3.848   l-0.98,6.193c-0.093,0.557-0.156,1.042-0.088,1.489c0.14,0.943,0.839,1.625,1.932,1.708c0.443,0.032,0.844-0.219,1.271-0.443   l3.994-2.134c1.188-0.563,0.25-2.333-0.885-1.667l-3.755,2c-0.541,0.287-0.713,0.005-0.609-0.651l1.072-6.709   c0.048-0.318-0.066-0.635-0.307-0.849l-4.645-4.188c-0.517-0.463-0.158-0.65,0.124-0.693l6.563-0.962   c0.309-0.047,0.574-0.24,0.709-0.521l2.875-5.921c0.244-0.495,0.582-0.308,0.734,0l2.869,5.921   c0.135,0.281,0.407,0.479,0.719,0.521l6.552,0.962c0.459,0.068,0.473,0.381,0.093,0.724l-4.287,3.866   c-0.162-0.011-0.323-0.021-0.479-0.021c-1.511,0.01-2.859,0.604-3.787,1.62c-1.858,2.021-2.014,5.505,0.423,8.339   l6.453,7.495c1.009,1.172,1.358,2.099,1.452,2.995l-27.937-0.021l0.037-42.369C26.302,11.362,27.318,10.34,28.621,10.34z   M28.626,8.45c-2.319,0-4.213,1.896-4.213,4.219l-0.005,7.598c-1.286-0.343-2.698-0.104-3.885,0.667   c-1.532,0.991-2.51,2.683-2.605,4.5c-0.066,1.215,0.292,2.371,0.986,3.271c-0.438,0.136-0.866,0.333-1.262,0.595   c-1.531,0.989-2.509,2.683-2.604,4.5c-0.093,1.765,0.662,3.474,2.121,4.322l4.182,2.433   c-1.406,0.813-2.354,2.677-2.475,4.141c-0.098,1.578,0.552,3.129,1.855,3.891l3.656,2.135L24.364,61.81   c0,2.317,1.891,4.219,4.21,4.219l14.276,0.02L48,74.012l0.88,2.531c1.01,2.688,2.396,4.319,4.276,4.839   c1.875,0.526,3.932-0.011,6.391-0.938l9.219-3.468c2.458-0.922,4.365-1.876,5.438-3.505c1.068-1.631,1.037-3.771,0.026-6.459   l-2.192-5.822l0.437-13.724c0.074-2.303-0.577-4.328-1.801-6.121L63.25,30.466l0.016-17.762c0.005-2.322-1.88-4.223-4.197-4.223   L28.626,8.45z"/>
</svg>
