<svg width="125" height="136" viewBox="0 0 125 136" fill="none" xmlns="http://www.w3.org/2000/svg">
<path d="M106.416 73.1081C130.804 87.3519 130.804 110.393 106.416 124.637C82.0975 138.881 42.6916 138.881 18.3729 124.637C-6.01475 110.393 -6.01475 87.3519 18.3729 73.1081C42.6916 58.8643 82.0975 58.8643 106.416 73.1081Z" fill="#D0D5DD"/>
<path d="M78.9486 14.5677L43.6601 6.60845C41.547 6.18583 39.7861 6.96063 38.9409 8.51022C39.8565 7.8763 41.0539 7.66499 42.4627 8.01717L77.6807 15.906C80.7094 16.6104 83.1747 19.4982 83.1747 22.3861L84.5834 102.331C84.5834 103.176 84.4426 103.951 84.0904 104.585C85.2174 103.81 85.9217 102.542 85.8513 100.993L84.4426 21.0478C84.4426 18.16 81.9773 15.2017 78.9486 14.5677Z" fill="#4B4B4D" fill-opacity="0.25098"/>
<path d="M39.9976 96.4135L44.5759 93.737C44.5759 93.737 45.7029 83.9463 44.9281 76.3392C43.8716 65.7034 36.9688 52.8136 28.7982 55.8423C20.5572 58.8711 32.5314 69.7182 35.2079 78.8045C37.8845 87.8203 39.9976 96.4135 39.9976 96.4135Z" fill="#26DDBF"/>
<path d="M41.0197 96.4135L45.5981 93.737C45.5981 93.737 46.7251 83.9463 45.9503 76.3392C44.8937 65.7034 37.991 52.8136 29.8204 55.8423C21.5794 58.8711 33.5535 69.7182 36.2301 78.8045C38.9067 87.8203 41.0197 96.4135 41.0197 96.4135Z" fill="black" fill-opacity="0.14902"/>
<path d="M43.4143 95.2853C43.2735 95.2853 43.1326 95.1444 43.1326 95.0035C43.9778 71.2666 32.1446 59.3629 32.0037 59.222C31.9333 59.1516 31.9333 58.9403 32.0037 58.8698C32.1446 58.7289 32.2854 58.7289 32.4263 58.8698C32.4967 58.9403 44.4709 71.0553 43.6961 95.0035C43.6961 95.1444 43.5552 95.2853 43.4143 95.2853Z" fill="white"/>
<path d="M38.5552 98.3146L41.7952 96.4128C41.7952 96.4128 42.3587 89.7214 39.0482 81.4804C36.2308 74.3664 29.0463 68.4497 25.454 69.7176C21.9322 70.9854 22.0027 73.5211 23.7636 76.1977C25.454 78.8743 36.1603 85.2135 38.5552 98.3146Z" fill="#26DDBF"/>
<path d="M40.2456 97.6104C40.1047 97.6104 40.0342 97.4696 40.0342 97.3287C40.1047 82.3258 26.0175 72.183 25.8766 72.0421C25.7357 71.9717 25.6653 71.8308 25.8062 71.6899C25.8766 71.5491 26.0175 71.5491 26.1583 71.6195C26.2992 71.6899 40.5977 82.0441 40.5977 97.3287C40.5977 97.4696 40.4569 97.6104 40.2456 97.6104Z" fill="white"/>
<path d="M45.3497 100.359C40.4896 99.3024 36.5452 94.5832 36.4747 89.8639L35.066 9.98943C34.9956 5.27022 38.7991 2.3119 43.6592 3.43888L78.9477 11.3277C83.7374 12.3843 87.6818 17.1035 87.7522 21.8227L89.1609 101.697C89.2314 106.416 85.4278 109.375 80.6382 108.318L45.3497 100.359Z" fill="#16161C"/>
<path d="M45.9136 102.965C40.8422 101.838 36.6865 96.8369 36.6161 91.9064L35.1369 7.66485C34.996 2.66389 39.0813 -0.435295 44.1527 0.691682L81.343 9.07357C86.4144 10.2006 90.5701 15.2015 90.711 20.132L92.1197 104.374C92.2606 109.304 88.1753 112.474 83.1039 111.276L45.9136 102.965Z" fill="#003996"/>
<path d="M45.2797 97.1192C42.2509 96.4853 39.7857 93.5269 39.7857 90.6391L38.3769 10.6941C38.3065 7.80624 40.7013 5.9749 43.6596 6.60883L78.9481 14.5681C81.9769 15.202 84.4421 18.1603 84.4421 21.0482L85.8509 100.993C85.9213 103.881 83.5265 105.712 80.5681 105.078L45.2797 97.1192Z" fill="#F3F3F3"/>
<path d="M74.4398 12.9469L48.1672 7.03027L49.435 9.91815C49.9985 11.2564 51.1959 12.313 52.5342 12.6652L70.2841 16.6096C71.6224 16.8913 72.8198 16.3983 73.3129 15.3417L74.4398 12.9469Z" fill="#D0D0D0"/>
<path d="M78.175 59.727L45.7745 52.4016C44.0135 52.0494 42.6048 53.106 42.6753 54.7964L42.8866 69.1654C42.957 70.8559 44.3657 72.5463 46.1266 72.969L78.5272 80.2239C80.2881 80.6465 81.6968 79.5899 81.6264 77.829L81.4151 63.4601C81.3447 61.7696 79.9359 60.0791 78.175 59.727Z" fill="#00AC9E"/>
<path d="M67.9596 65.2913L56.7603 62.826C56.3376 62.7556 56.0559 62.9669 56.0559 63.3191C56.0559 63.6712 56.4081 64.0938 56.7603 64.1643L67.9596 66.6295C68.3118 66.7704 68.664 66.4887 68.5935 66.1365C68.5935 65.7843 68.3118 65.4321 67.9596 65.2913Z" fill="white"/>
<path d="M71.4124 69.9398L52.8877 65.7841C52.5355 65.6432 52.2538 65.925 52.2538 66.2772C52.2538 66.6294 52.5355 67.052 52.9581 67.1224L71.4828 71.2781C71.835 71.3486 72.1872 71.1373 72.1168 70.7146C72.1168 70.3625 71.835 70.0103 71.4124 69.9398Z" fill="white"/>
<path d="M91.2245 23.6927L32.8048 10.4847C29.6298 9.84974 27.0898 11.7547 27.2168 14.8027L27.5978 40.7106C27.7248 43.7586 30.2648 46.9336 33.4398 47.5686L91.8595 60.6495C95.0345 61.4115 97.4475 59.5065 97.4475 56.4585L96.9395 30.5506C96.9395 27.3756 94.3995 24.3277 91.2245 23.6927Z" fill="#2E90FA"/>
<path d="M70.4473 27.8452L54.2494 24.2797C53.7401 24.0759 53.3326 24.4834 53.3326 24.9928C53.3326 25.5021 53.7401 26.0115 54.3513 26.2153L70.5492 29.7808C71.0586 29.9846 71.4661 29.5771 71.4661 29.0677C71.4661 28.5583 71.0586 27.9471 70.4473 27.8452Z" fill="#003996"/>
<path d="M69.1665 46.4159L53.5644 42.8833C53.0737 42.7852 52.5831 43.1777 52.6812 43.6683C52.6812 44.1589 53.0737 44.6496 53.6625 44.8458L69.2646 48.2803C69.7553 48.4765 70.1478 48.084 70.1478 47.5934C70.1478 47.1028 69.6571 46.514 69.1665 46.4159Z" fill="#003996"/>
<path d="M43.0017 31.6784L43.7565 30.1688C45.0144 30.9236 45.895 31.4268 46.3982 31.9299C46.3982 30.5462 46.3982 29.5398 46.3982 29.0366L48.1594 29.5398C48.0336 30.1688 47.9078 31.1752 47.6562 32.1815C48.5367 32.0557 49.4173 31.9299 50.5495 31.8041L50.9269 33.5653C49.9205 33.6911 48.9141 33.5653 47.9078 33.4395C48.2851 34.0685 48.9141 34.949 49.6689 36.0812L48.1594 36.7102C47.782 35.9554 47.2788 35.0748 46.7756 33.9427C46.0208 34.8232 45.5176 35.4522 45.0144 35.9554L43.6307 34.5717C44.7628 33.8169 45.3918 33.1879 45.895 32.9363C44.8886 32.5589 43.8823 32.0557 43.0017 31.6784ZM52.5622 33.9427L53.317 32.5589C54.575 33.3137 55.4555 33.8169 55.9587 34.3201C55.9587 32.9363 55.9587 31.9299 55.9587 31.4268L57.7199 31.8041C57.5941 32.5589 57.4683 33.5653 57.2167 34.5717C58.0973 34.4459 58.9778 34.3201 60.11 34.1943L60.4874 35.9554C59.481 35.9554 58.4747 35.9554 57.4683 35.8296C57.8457 36.3328 58.4747 37.2134 59.2294 38.4714L57.7199 39.1003C57.3425 38.3455 56.8393 37.465 56.3361 36.207C55.5813 37.2134 55.0781 37.8424 54.575 38.3456L53.1912 36.9618C54.3234 36.207 55.0782 35.578 55.4555 35.3264C54.4492 34.9491 53.4428 34.4459 52.5622 33.9427ZM62.1227 36.3328L62.8775 34.949C64.1355 35.7038 65.0161 36.207 65.5192 36.7102C65.5192 35.3264 65.5192 34.3201 65.645 33.8169L67.2804 34.1943C67.2804 34.9491 67.0288 35.9554 66.7772 36.9618C67.6578 36.836 68.5384 36.7102 69.6705 36.5844L70.0479 38.3456C69.0415 38.3456 68.0352 38.3455 67.0288 38.2198C67.4062 38.7229 68.0352 39.6035 68.7899 40.8615L67.2804 41.4905C66.903 40.7357 66.3998 39.8551 65.8966 38.5971C65.2677 39.6035 64.6387 40.2325 64.1355 40.7357L62.7517 39.3519C63.8839 38.4713 64.6387 37.9682 65.0161 37.7166C64.0097 37.3392 63.0033 36.836 62.1227 36.3328ZM71.6833 38.7229L72.438 37.3392C73.696 37.9682 74.5766 38.5971 75.0798 39.1003C75.0798 37.7166 75.0798 36.7102 75.2056 36.207L76.9667 36.5844C76.8409 37.3392 76.5893 38.2198 76.3377 39.3519C77.2183 39.2261 78.2247 38.9745 79.231 38.9745L79.6084 40.7357C78.6021 40.7357 77.5957 40.7357 76.5893 40.6099C76.9667 41.1131 77.5957 41.9936 78.4763 43.2516L76.8409 43.8806C76.4635 43.1258 75.9603 42.2452 75.4572 40.9873C74.8282 41.8678 74.1992 42.6226 73.696 43.1258L72.3123 41.742C73.4444 40.8615 74.1992 40.3583 74.5766 40.1067C73.5702 39.6035 72.5638 39.2261 71.6833 38.7229Z" fill="#FEFEFE"/>
<path d="M78.5966 82.092L46.196 74.8371C44.4351 74.4145 43.0969 75.471 43.0969 77.2319L43.3786 91.6009C43.3786 93.2914 44.8578 94.9818 46.5482 95.4044L78.9488 102.659C80.7097 103.012 82.1184 101.955 82.048 100.265L81.8367 85.8956C81.7663 84.2051 80.3575 82.5146 78.5966 82.092Z" fill="#00AC9E"/>
<path d="M68.3134 85.8962L57.1141 83.3605C56.7619 83.2901 56.4802 83.5014 56.4802 83.924C56.4802 84.2762 56.7619 84.6284 57.1845 84.6988L68.3839 87.2345C68.736 87.3049 69.0178 87.0936 69.0178 86.7414C69.0178 86.3188 68.736 85.9666 68.3134 85.8962Z" fill="white"/>
<path d="M68.4547 93.3625L57.2554 90.8268C56.9032 90.7563 56.6215 91.0381 56.6215 91.3903C56.6215 91.7425 56.9032 92.0946 57.3258 92.2355L68.5252 94.7008C68.8773 94.7712 69.1591 94.5599 69.1591 94.2077C69.1591 93.8555 68.8773 93.4329 68.4547 93.3625Z" fill="white"/>
<path d="M71.835 90.4749L53.3103 86.3192C52.9582 86.2487 52.606 86.46 52.6764 86.8122C52.6764 87.2348 52.9582 87.587 53.3103 87.6574L71.9055 91.8132C72.2577 91.8836 72.5394 91.6723 72.5394 91.3201C72.5394 90.9679 72.2577 90.5453 71.835 90.4749Z" fill="white"/>
</svg>
